# xmcd CD database file
#
# Track frame offsets:
#	150
#	11498
#	25908
#	38058
#	48965
#	61405
#	79855
#	94283
#	108810
#	122045
#	135085
#	148655
#	161920
#	175250
#	188465
#	202928
#	215788
#	229815
#	245395
#	259613
#	272593
#	283863
#	297168
#	310055
#
# Disc length: 4302 seconds
#
# Revision: 8
# Processed by: cddbd v1.5.2PL0 Copyright (c) Steve Scherf et al.
# Submitted via: CDex 1.83
#
DISCID=5010cc18
DTITLE=Gerry Mulligan Quartet - Gerry Mulligan Quartet With Chet Baker
DYEAR=1953
DGENRE=Jazz
TTITLE0=Line For Lyons
TTITLE1=Walking Shoes
TTITLE2=Love Me Or Leave Me
TTITLE3=Carioca
TTITLE4=Freeway
TTITLE5=Moonlight In Vermont
TTITLE6=The Lady Is A Tramp
TTITLE7=Bark For Barksdale
TTITLE8=My Funny Valentine
TTITLE9=Bernie's Tune
TTITLE10=Five Brothers
TTITLE11=Turnstile
TTITLE12=I May Be Wrong
TTITLE13=Swing House
TTITLE14=Lullaby Of The Leaves
TTITLE15=The Nearness Of You
TTITLE16=I'm Beginning To See The Light
TTITLE17=Makin' Whoopee
TTITLE18=Frenesi
TTITLE19=Nights At The Turntable
TTITLE20=Jeru
TTITLE21=Cherry
TTITLE22=Aren't You Glad You're You
TTITLE23=Tea For Two
EXTD=YEAR: 1953
EXTT0=
EXTT1=
EXTT2=
EXTT3=
EXTT4=
EXTT5=
EXTT6=
EXTT7=
EXTT8=
EXTT9=
EXTT10=
EXTT11=
EXTT12=
EXTT13=
EXTT14=
EXTT15=
EXTT16=
EXTT17=
EXTT18=
EXTT19=
EXTT20=
EXTT21=
EXTT22=
EXTT23=
PLAYORDER=
